{"title":"Shingeki no Kyojin S2E10 720p (EngDub) Download ","magnet":"magnet:?xt=urn:btih:30ac5aa4918912accc3a170626e46c4b63533cea&dn=Shingeki+no+Kyojin+S2E10+720p+%28EngDub%29+Download+&tr=udp%3A%2F%2Ftracker.leechers-paradise.org%3A6969&tr=udp%3A%2F%2Fzer0day.ch%3A1337&tr=udp%3A%2F%2Fopen.demonii.com%3A1337&tr=udp%3A%2F%2Ftracker.coppersurfer.tk%3A6969&tr=udp%3A%2F%2Fexodus.desync.com%3A6969","uploader":"digimaza","categoryP":"video","categoryS":"tv_shows","size":"120152615","seeders":"1","leechers":"3","description":"Shingeki no Kyojin S2E10 720p (EngDub) Download  <a href=\"\nhttps://s12.postimg.org/f3p0ohpz1/7a823f65856baabc65ad210e54ac5d27.jpg\" rel=\"nofollow\" target=\"_NEW\">\nhttps://s12.postimg.org/f3p0ohpz1/7a823f65856baabc65ad210e54ac5d27.jpg</a>\r\n\r\n..::File Specs::.. \r\nGeneral \r\n\r\nFormat                                   : Matroska \r\nFormat version                           : Version 4 / Version 2 \r\nFile size                                : 115 MiB \r\nDuration                                 : 24 min 10 s \r\nOverall bit rate                         : 663 kb/s \r\n\r\nVideo \r\nID                                       : 1 \r\nFormat                                   : AVC \r\nFormat/Info                              : Advanced Video Codec \r\nFormat profile                           : <a class=\"__cf_email__\" href=\"/cdn-cgi/l/email-protection\" data-cfemail=\"1850717f7058542c3629\">[email&#xA0;protected]</a><script data-cfhash=\"f9e31\" type=\"text/javascript\">/* <![CDATA[ */!function(t,e,r,n,c,a,p){try{t=document.currentScript||function(){for(t=document.getElementsByTagName('script'),e=t.length;e--;)if(t[e].getAttribute('data-cfhash'))return t[e]}();if(t&&(c=t.previousSibling)){p=t.parentNode;if(a=c.getAttribute('data-cfemail')){for(e='',r='0x'+a.substr(0,2)|0,n=2;a.length-n;n+=2)e+='%'+('0'+('0x'+a.substr(n,2)^r).toString(16)).slice(-2);p.replaceChild(document.createTextNode(decodeURIComponent(e)),c)}p.removeChild(t)}}catch(u){}}()/* ]]> */</script> \r\nFormat settings, CABAC                   : Yes \r\nFormat settings, ReFrames                : 6 frames \r\nCodec ID                                 : V_MPEG4/ISO/AVC \r\nDuration                                 : 24 min 10 s \r\nBit rate                                 : 621 kb/s \r\nWidth                                    : 1 280 pixels \r\nHeight                                   : 720 pixels \r\nDisplay aspect ratio                     : 16:9 \r\nFrame rate mode                          : Constant \r\nFrame rate                               : 23.976 (24000/1001) FPS \r\nColor space                              : YUV \r\nChroma subsampling                       : 4:2:0 \r\nBit depth                                : 8 bits \r\nScan type                                : Progressive \r\nBits/(Pixel*Frame)                       : 0.028 \r\nStream size                              : 107 MiB (94%) \r\nWriting library                          : x264 core 148 r2708 86b7198 \r\nDefault                                  : Yes \r\nForced                                   : No \r\nColor range                              : Limited \r\nColor primaries                          : BT.709 \r\nTransfer characteristics                 : BT.709 \r\nMatrix coefficients                      : BT.709 \r\n\r\nAudio \r\nID                                       : 2 \r\nFormat                                   : AAC \r\nFormat/Info                              : Advanced Audio Codec \r\nFormat profile                           : LC \r\nCodec ID                                 : A_AAC \r\nDuration                                 : 24 min 10 s \r\nBit rate                                 : 39.5 kb/s \r\nChannel(s)                               : 2 channels \r\nChannel positions                        : Front: L R \r\nSampling rate                            : 48.0 kHz \r\nFrame rate                               : 46.875 FPS (1024 spf) \r\nCompression mode                         : Lossy \r\nDelay relative to video                  : -21 ms \r\nStream size                              : 6.82 MiB (6%) \r\n\r\n================================================================ \r\nSeed Seed Seed Seed Seed Seed Seed Seed Seed Seed Seed Seed Seed \r\nTo direct download or Watch Online this file, Visit. \r\r\nSeed Seed Seed Seed Seed Seed Seed Seed Seed Seed Seed Seed Seed \r\n================================================================","last_updated":"2017-07-09T12:01:05.810Z","parsed":{"xt":"urn:btih:30ac5aa4918912accc3a170626e46c4b63533cea","dn":"Shingeki no Kyojin S2E10 720p (EngDub) Download ","tr":["udp://exodus.desync.com:6969","udp://open.demonii.com:1337","udp://tracker.coppersurfer.tk:6969","udp://tracker.leechers-paradise.org:6969","udp://zer0day.ch:1337"],"infoHash":"30ac5aa4918912accc3a170626e46c4b63533cea","infoHashBuffer":{"type":"Buffer","data":[48,172,90,164,145,137,18,172,204,58,23,6,38,228,108,75,99,83,60,234]},"name":"Shingeki no Kyojin S2E10 720p (EngDub) Download ","announce":["udp://exodus.desync.com:6969","udp://open.demonii.com:1337","udp://tracker.coppersurfer.tk:6969","udp://tracker.leechers-paradise.org:6969","udp://zer0day.ch:1337"],"urlList":[]}}